# This file uses centimeters as units for non-parametric coordinates.

mtllib buildingMidl.mtl
g default
v 5.357095 -0.001173 -1.033309
v 7.757376 -0.001173 -1.033309
v 5.357095 -0.001173 1.329543
v 7.757376 -0.001173 1.329543
v 4.756743 5.468686 1.920533
v 8.357736 5.468686 1.920533
v 4.756743 5.468686 -1.624299
v 8.357736 5.468686 -1.624299
v 5.215137 1.966828 1.469287
v 7.899334 1.966828 1.469287
v 7.899334 1.966828 -1.173053
v 5.215137 1.966828 -1.173053
v 4.839834 5.087956 -1.542503
v 8.274645 5.087956 -1.542503
v 8.274645 5.087956 1.838737
v 4.839834 5.087956 1.838737
v 4.869605 5.009251 1.809431
v 8.244875 5.009251 1.809431
v 8.244875 5.009251 -1.513197
v 4.869605 5.009251 -1.513197
v 5.034043 3.663489 1.647556
v 8.080434 3.663489 1.647556
v 8.080434 3.663489 -1.351322
v 5.034044 3.663489 -1.351322
v 4.569718 5.387661 -1.811455
v 8.544759 5.387661 -1.811455
v 8.461668 5.006930 -1.729659
v 4.652810 5.006930 -1.729659
v 8.461668 5.006930 2.025893
v 8.544759 5.387661 2.107689
v 4.652810 5.006930 2.025893
v 4.569718 5.387661 2.107689
v 4.703097 4.884148 1.976263
v 8.411384 4.884150 1.976264
v 8.441154 4.962854 2.005570
v 4.673326 4.962852 2.005569
v 4.673326 4.962853 -1.709336
v 8.441154 4.962854 -1.709336
v 8.411384 4.884150 -1.680031
v 4.703097 4.884148 -1.680030
v 5.034044 3.663489 1.647556
v 8.080434 3.663489 1.647556
v 8.080434 3.663489 -1.351322
v 5.034044 3.663489 -1.351322
v 8.087524 3.721510 -1.358301
v 8.087524 3.721510 1.654535
v 5.026954 3.721510 1.654535
v 5.026955 3.721510 -1.358301
v 5.219635 1.904460 1.464858
v 7.894836 1.904460 1.464858
v 7.894836 1.904459 -1.168625
v 5.219635 1.904459 -1.168625
v 5.170017 1.897358 1.514480
v 7.944453 1.897358 1.514480
v 7.948951 1.959726 1.518909
v 5.165519 1.959726 1.518909
v 7.944453 1.897357 -1.218246
v 7.948952 1.959726 -1.222675
v 5.165519 1.959726 -1.222675
v 5.170017 1.897356 -1.218246
v 4.985121 3.651625 1.696489
v 8.129356 3.651626 1.696490
v 8.136446 3.709646 1.703468
v 4.978032 3.709646 1.703468
v 8.129356 3.651625 -1.400256
v 8.136446 3.709647 -1.407235
v 4.978033 3.709646 -1.407235
v 4.985122 3.651625 -1.400256
vt 0.696162 0.512006
vt 0.960284 0.512006
vt 0.960284 0.772008
vt 0.696162 0.772008
vt 0.011934 0.540051
vt 0.339516 0.553446
vt 0.309491 0.357575
vt 0.974001 0.785735
vt 0.682445 0.785735
vt 0.309491 0.357575
vt 0.974001 0.498279
vt 0.682445 0.498279
vt 0.338270 0.496025
vt 0.338270 0.496025
vt 0.634156 0.357091
vt 0.634156 0.357091
vt 0.338270 0.496025
vt 0.027850 0.357575
vt 0.027850 0.357575
vt 0.010438 0.529587
vt 0.044592 0.198232
vt 0.339516 0.553446
vt 0.011934 0.540051
vt 0.292749 0.198232
vt 0.348054 0.357091
vt 0.027850 0.357575
vt 0.027850 0.357575
vt 0.348054 0.357091
vt 0.010438 0.496025
vt 0.010438 0.496025
vt 0.338270 0.529587
vt 0.338270 0.529587
vt 0.011934 0.553446
vt 0.338270 0.529587
vt 0.338270 0.529587
vt 0.339516 0.540051
vt 0.309491 0.357575
vt 0.339516 0.553446
vt 0.011934 0.540051
vt 0.309491 0.357575
vt 0.365061 0.197748
vt 0.292749 0.198232
vt 0.044592 0.198232
vt 0.617149 0.197748
vt 0.027195 0.363024
vt 0.010438 0.496025
vt 0.010438 0.496025
vt 0.310146 0.363024
vt 0.673410 0.357091
vt 0.324693 0.483962
vt 0.012648 0.483962
vt 0.673409 0.357091
vt 0.010438 0.529587
vt 0.338270 0.496025
vt 0.010438 0.529587
vt 0.010438 0.496025
vt 0.338270 0.496025
vt 0.338270 0.529587
vt 0.010438 0.529587
vt 0.010438 0.529587
vt 0.010438 0.529587
vt 0.338270 0.529587
vt 0.010438 0.529587
vt 0.338270 0.529587
vt 0.010438 0.529587
vt 0.338270 0.529587
vt 0.338270 0.496025
vt 0.010438 0.496025
vt 0.011934 0.540051
vt 0.339516 0.553446
vt 0.339516 0.540051
vt 0.339516 0.540051
vt 0.339516 0.553446
vt 0.011934 0.540051
vt 0.011934 0.553446
vt 0.339516 0.540051
vt 0.011934 0.540051
vt 0.011934 0.540051
vt 0.011934 0.553446
vt 0.011934 0.553446
vt 0.339516 0.540051
vt 0.339516 0.540051
vt 0.339516 0.553446
vt 0.339516 0.553446
vt 0.012648 0.483962
vt 0.339516 0.553446
vt 0.011934 0.540051
vt 0.324693 0.483962
vt 0.959512 0.357091
vt 0.310146 0.363024
vt 0.027195 0.363024
vt 0.959512 0.357091
vt 0.942504 0.197748
vt 0.279624 0.013407
vt 0.339516 0.553446
vt 0.292332 0.192375
vt 0.045008 0.192375
vt 0.011934 0.540051
vt 0.057716 0.013407
vt 0.690417 0.197748
vt 0.045008 0.192375
vt 0.347388 0.362540
vt 0.634822 0.362540
vt 0.292332 0.192375
vt 0.649600 0.483478
vt 0.279624 0.013407
vt 0.057716 0.013407
vt 0.332610 0.483478
vt 0.657966 0.483478
vt 0.974955 0.483478
vt 0.960178 0.362540
vt 0.672744 0.362540
vt 0.339516 0.553446
vt 0.339516 0.553446
vt 0.339516 0.540051
vt 0.339516 0.540051
vt 0.339516 0.540051
vt 0.339516 0.553446
vt 0.011934 0.540051
vt 0.011934 0.553446
vt 0.011934 0.540051
vt 0.011934 0.553446
vt 0.011934 0.553446
vt 0.011934 0.540051
vt 0.338270 0.496025
vt 0.010438 0.496025
vt 0.378393 0.012923
vt 0.603816 0.012923
vt 0.011934 0.553446
vt 0.339516 0.540051
vt 0.339516 0.553446
vt 0.339516 0.553446
vt 0.339516 0.540051
vt 0.011934 0.540051
vt 0.011934 0.540051
vt 0.011934 0.553446
vt 0.616725 0.191891
vt 0.365483 0.191891
vt 0.690840 0.191891
vt 0.942081 0.191891
vt 0.929172 0.012923
vt 0.703749 0.012923
vt 0.011934 0.553446
vt 0.339516 0.540051
vt 0.011934 0.553446
vt 0.339516 0.553446
vt 0.011934 0.540051
vt 0.339516 0.540051
vt 0.011934 0.540051
vt 0.011934 0.553446
vt 0.011934 0.553446
vt 0.011934 0.553446
vt 0.011934 0.553446
vt 0.011934 0.540051
vt 0.011934 0.553446
vt 0.339516 0.553446
vt 0.339516 0.553446
vt 0.011934 0.540051
vt 0.339516 0.540051
vt 0.011934 0.553446
vt 0.339516 0.553446
vt 0.011934 0.553446
vt 0.339516 0.540051
vt 0.339516 0.540051
vt 0.339516 0.553446
vt 0.339516 0.540051
vt 0.339516 0.540051
vt 0.011934 0.540051
vt 0.011934 0.540051
vt 0.011934 0.540051
vt 0.011934 0.553446
vt 0.339516 0.540051
vt 0.339516 0.553446
vt 0.339516 0.553446
vt 0.011934 0.540051
vt 0.339516 0.540051
vt 0.339516 0.553446
vt 0.011934 0.553446
vt 0.011934 0.553446
vt 0.339516 0.553446
vt 0.339516 0.540051
vt 0.011934 0.540051
vt 0.011934 0.540051
vt 0.339516 0.540051
vt 0.339516 0.553446
vt 0.011934 0.553446
vt 0.011934 0.553446
vt 0.339516 0.553446
vt 0.339516 0.540051
vt 0.011934 0.540051
vt 0.011934 0.553446
vt 0.339516 0.540051
vt 0.011934 0.540051
vt 0.011934 0.540051
vt 0.011934 0.553446
vt 0.011934 0.540051
vt 0.339516 0.553446
vt 0.011934 0.553446
vt 0.339516 0.553446
vt 0.339516 0.540051
vt 0.339516 0.540051
vt 0.011934 0.540051
vt 0.011934 0.553446
vt 0.339516 0.540051
vt 0.339516 0.553446
vt 0.339516 0.553446
vt 0.011934 0.540051
vt 0.339516 0.540051
vt 0.339516 0.553446
vt 0.011934 0.553446
vt 0.011934 0.553446
vt 0.339516 0.553446
vt 0.339516 0.540051
vt 0.011934 0.540051
vt 0.011934 0.540051
vt 0.339516 0.540051
vt 0.339516 0.553446
vt 0.011934 0.553446
vt 0.011934 0.553446
vt 0.339516 0.553446
vt 0.339516 0.540051
vt 0.011934 0.540051
vt 0.011934 0.553446
vt 0.011934 0.553446
vt 0.011934 0.540051
vt 0.339516 0.553446
vt 0.339516 0.553446
vt 0.339516 0.553446
vt 0.339516 0.540051
vt 0.011934 0.553446
vt 0.011934 0.540051
vt 0.011934 0.540051
vt 0.339516 0.540051
vt 0.339516 0.540051
vt 0.011934 0.553446
vt 0.339516 0.540052
vt 0.339516 0.540052
vt 0.011934 0.553446
vt 0.338270 0.496025
vt 0.010438 0.496025
vn 0.000000 -0.348947 0.937142
vn 0.000000 -0.348947 0.937142
vn 0.000000 -0.348947 0.937142
vn 0.000000 -0.348947 0.937142
vn -0.029991 0.999087 0.030433
vn 0.029991 0.999087 0.030433
vn 0.029991 0.999087 -0.030433
vn -0.029991 0.999087 -0.030433
vn 0.000000 -0.348946 -0.937143
vn 0.000000 -0.348946 -0.937143
vn 0.000000 -0.348946 -0.937143
vn 0.000000 -0.348946 -0.937143
vn 0.935327 -0.353785 -0.000000
vn 0.935327 -0.353786 -0.000000
vn 0.935327 -0.353786 -0.000000
vn 0.935327 -0.353785 -0.000000
vn -0.935325 -0.353789 -0.000000
vn -0.935325 -0.353789 -0.000000
vn -0.935325 -0.353789 -0.000000
vn -0.935325 -0.353789 -0.000000
vn 0.000000 -0.070830 0.997488
vn 0.000000 -0.070830 0.997488
vn 0.000000 -0.070830 0.997488
vn 0.000000 -0.070830 0.997488
vn 0.997409 -0.071942 0.000000
vn 0.997409 -0.071942 0.000000
vn 0.997409 -0.071942 0.000000
vn 0.997409 -0.071942 0.000000
vn 0.000000 -0.070831 -0.997488
vn 0.000000 -0.070831 -0.997488
vn 0.000000 -0.070831 -0.997488
vn 0.000000 -0.070831 -0.997488
vn -0.997409 -0.071941 0.000000
vn -0.997409 -0.071941 0.000000
vn -0.997409 -0.071941 0.000000
vn -0.997409 -0.071941 0.000000
vn 0.000000 -0.210047 -0.977691
vn 0.000000 -0.210047 -0.977691
vn 0.000000 -0.210047 -0.977691
vn 0.000000 -0.210047 -0.977691
vn 0.977003 -0.213224 0.000000
vn 0.977003 -0.213224 0.000000
vn 0.977003 -0.213224 0.000000
vn 0.977003 -0.213224 0.000000
vn -0.000000 -0.210047 0.977691
vn -0.000000 -0.210047 0.977691
vn -0.000000 -0.210047 0.977691
vn -0.000000 -0.210047 0.977691
vn -0.977003 -0.213224 0.000000
vn -0.977003 -0.213224 0.000000
vn -0.977003 -0.213224 0.000000
vn -0.977003 -0.213224 0.000000
vn 0.000000 -0.119424 0.992843
vn 0.000000 -0.119424 0.992843
vn 0.000000 -0.119424 0.992843
vn 0.000000 -0.119424 0.992843
vn 0.992617 -0.121289 0.000000
vn 0.992617 -0.121289 0.000000
vn 0.992617 -0.121289 0.000000
vn 0.992617 -0.121289 0.000000
vn 0.000000 -0.119423 -0.992844
vn 0.000000 -0.119423 -0.992844
vn 0.000000 -0.119423 -0.992843
vn 0.000000 -0.119423 -0.992843
vn -0.992618 -0.121285 -0.000000
vn -0.992618 -0.121285 -0.000000
vn -0.992618 -0.121285 -0.000000
vn -0.992618 -0.121285 -0.000000
vn 0.000000 -0.000000 0.000000
vn 0.000000 -0.000000 0.000000
vn 0.000000 -0.000000 0.000000
vn 0.000000 -0.104495 0.994525
vn 0.000000 -0.104495 0.994525
vn 0.000000 -0.104495 0.994525
vn 0.000000 -0.000000 0.000000
vn 0.000000 -0.000000 0.000000
vn 0.000000 -0.000000 0.000000
vn 0.000000 -0.000000 0.000000
vn 0.994352 -0.106136 0.000000
vn 0.994352 -0.106136 0.000000
vn 0.000000 -0.104495 -0.994525
vn 0.000000 -0.104495 -0.994525
vn 0.000000 -0.000000 -0.000000
vn 0.000000 -0.000000 -0.000000
vn 0.000000 -0.104495 -0.994525
vn 0.000000 -0.104495 -0.994525
vn -0.994352 -0.106132 0.000000
vn -0.994352 -0.106132 0.000000
vn -0.994352 -0.106132 0.000000
vn -0.994352 -0.106132 0.000000
vn -0.994352 -0.106132 0.000000
vn -0.994352 -0.106132 0.000000
vn 0.000000 0.917691 -0.397296
vn 0.000000 0.917691 -0.397296
vn -0.000000 -0.917691 0.397296
vn -0.000000 -0.917691 0.397296
vn -0.000000 -0.917691 0.397296
vn -0.000000 -0.917691 0.397296
vn -0.397533 -0.917588 0.000000
vn -0.397533 -0.917588 0.000000
vn -0.397533 -0.917588 0.000000
vn -0.397533 -0.917588 0.000000
vn 0.397533 0.917588 0.000000
vn 0.397533 0.917588 0.000000
vn 0.000000 -0.917691 -0.397294
vn 0.000000 -0.917691 -0.397294
vn 0.000000 -0.917691 -0.397294
vn 0.000000 -0.917691 -0.397294
vn 0.000000 0.917692 0.397294
vn 0.000000 0.917692 0.397294
vn 0.397530 -0.917589 0.000000
vn 0.397530 -0.917589 0.000000
vn 0.397530 -0.917589 0.000000
vn 0.397530 -0.917589 0.000000
vn -0.397530 0.917589 -0.000000
vn -0.397530 0.917589 -0.000000
vn 0.000000 -0.800052 -0.599931
vn 0.000000 -0.800052 -0.599931
vn 0.000000 -0.800052 -0.599931
vn 0.000000 -0.800052 -0.599931
vn -0.000000 0.800051 0.599932
vn -0.000000 0.800051 0.599932
vn -0.000000 0.800051 0.599932
vn -0.000000 0.800051 0.599932
vn -0.000000 0.800052 -0.599931
vn -0.000000 0.800052 -0.599931
vn -0.000000 0.800052 -0.599931
vn -0.000000 0.800052 -0.599931
vn 0.000000 -0.800052 0.599931
vn 0.000000 -0.800052 0.599931
vn 0.000000 -0.800052 0.599931
vn 0.000000 -0.800052 0.599931
vn -0.600673 -0.799495 0.000000
vn -0.600673 -0.799495 0.000000
vn -0.600673 -0.799495 0.000000
vn -0.600673 -0.799495 0.000000
vn 0.600673 0.799495 0.000000
vn 0.600673 0.799495 0.000000
vn 0.600673 0.799495 0.000000
vn 0.600673 0.799495 0.000000
vn -0.600683 0.799488 0.000000
vn -0.600683 0.799488 0.000000
vn -0.600683 0.799488 0.000000
vn -0.600683 0.799488 0.000000
vn 0.600681 -0.799489 0.000000
vn 0.600681 -0.799489 0.000000
vn 0.600681 -0.799489 0.000000
vn 0.600681 -0.799489 0.000000
vn 0.992617 -0.121289 -0.000000
vn 0.992617 -0.121289 -0.000000
vn 0.992617 -0.121289 -0.000000
vn 0.992617 -0.121289 -0.000000
vn 0.000000 -0.119424 0.992843
vn 0.000000 -0.119424 0.992843
vn 0.000000 -0.119424 0.992843
vn 0.000000 -0.119424 0.992843
vn -0.992617 -0.121289 -0.000000
vn -0.992617 -0.121289 -0.000000
vn -0.992617 -0.121289 -0.000000
vn -0.992617 -0.121289 -0.000000
vn 0.000000 -0.119424 -0.992843
vn 0.000000 -0.119424 -0.992843
vn 0.000000 -0.119424 -0.992843
vn 0.000000 -0.119424 -0.992843
vn 0.000000 -0.070830 0.997488
vn 0.000000 -0.070830 0.997488
vn 0.000000 -0.070830 0.997488
vn 0.000000 -0.070830 0.997488
vn 0.997409 -0.071946 0.000000
vn 0.997409 -0.071946 0.000000
vn 0.997409 -0.071946 0.000000
vn 0.997409 -0.071946 0.000000
vn 0.000000 -0.070830 -0.997488
vn 0.000000 -0.070830 -0.997488
vn 0.000000 -0.070830 -0.997488
vn 0.000000 -0.070830 -0.997488
vn -0.997409 -0.071947 0.000000
vn -0.997409 -0.071947 0.000000
vn -0.997409 -0.071947 0.000000
vn -0.997409 -0.071947 0.000000
vn 0.070657 -0.994917 -0.071750
vn -0.070651 -0.994917 -0.071750
vn -0.070646 -0.994917 -0.071755
vn 0.070652 -0.994917 -0.071754
vn 0.070651 0.994917 0.071749
vn -0.070656 0.994917 0.071749
vn -0.070651 0.994917 0.071754
vn 0.070645 0.994917 0.071754
vn -0.070651 -0.994917 0.071750
vn -0.070646 -0.994917 0.071755
vn 0.070650 0.994917 -0.071750
vn 0.070646 0.994917 -0.071754
vn -0.070656 0.994917 -0.071750
vn -0.070651 0.994917 -0.071754
vn 0.070657 -0.994917 0.071750
vn 0.070652 -0.994917 0.071754
vn 0.118574 -0.985618 -0.120406
vn -0.118571 -0.985618 -0.120407
vn -0.118547 -0.985618 -0.120430
vn 0.118551 -0.985618 -0.120429
vn 0.118572 0.985617 0.120412
vn -0.118576 0.985617 0.120412
vn -0.118553 0.985617 0.120434
vn 0.118548 0.985617 0.120436
vn -0.118571 -0.985618 0.120411
vn -0.118547 -0.985618 0.120434
vn 0.118572 0.985618 -0.120410
vn 0.118549 0.985618 -0.120434
vn -0.118576 0.985617 -0.120409
vn -0.118553 0.985617 -0.120432
vn 0.118574 -0.985618 0.120410
vn 0.118551 -0.985617 0.120433
s off
g pCube20
usemtl lambert5SG
f 33/215/1 34/216/2 35/217/3 36/218/4
s 1
f 5/1/5 6/2/6 8/3/7 7/4/8
s off
f 37/219/9 38/220/10 39/221/11 40/222/12
f 34/207/13 39/208/14 38/209/15 35/210/16
f 36/211/17 37/212/18 40/213/19 33/214/20
f 53/175/21 54/176/22 55/177/23 56/178/24
f 54/183/25 57/184/26 58/185/27 55/186/28
f 59/179/29 58/180/30 57/181/31 60/182/32
f 56/187/33 59/188/34 60/189/35 53/190/36
f 25/61/37 26/62/38 27/239/39 28/240/40
f 29/126/41 27/125/42 26/66/43 30/65/44
f 31/68/45 29/67/46 30/64/47 32/63/48
f 25/58/49 28/57/50 31/56/51 32/55/52
f 61/87/53 62/144/54 63/146/55 64/150/56
f 62/69/57 65/71/58 66/95/59 63/145/60
f 67/152/61 66/157/62 65/163/63 68/168/64
f 64/151/65 67/156/66 68/159/67 61/169/68
f 42/15/69 22/16/70 21/25/71 41/28/72 9/41/73 10/44/74
f 43/7/75 23/10/76 22/18/77 42/19/78 10/21/79 11/24/80
f 44/49/81 24/52/82 23/89/83 43/92/84 11/93/85 12/100/86
f 41/26/87 21/27/88 24/37/89 44/40/90 12/42/91 9/43/92
s 1
f 7/4/8 8/3/7 26/8/93 25/9/94
s off
f 14/13/95 13/30/96 28/59/97 27/32/98
f 15/17/99 14/29/100 27/20/101 29/35/102
s 1
f 8/3/7 6/2/6 30/11/103 26/8/104
s off
f 16/53/105 15/34/106 29/54/107 31/47/108
s 1
f 6/2/6 5/1/5 32/12/109 30/11/110
s off
f 13/14/111 16/46/112 31/60/113 28/31/114
s 1
f 5/1/5 7/4/8 25/9/115 32/12/116
s off
f 17/238/117 18/6/118 34/229/119 33/23/120
f 15/73/121 16/235/122 36/225/123 35/76/124
f 13/77/125 14/233/126 38/227/127 37/80/128
f 19/81/129 20/231/130 40/223/131 39/84/132
f 18/237/133 19/232/134 39/230/135 34/22/136
f 14/78/137 15/236/138 35/228/139 38/79/140
f 16/74/141 13/234/142 37/226/143 36/75/144
f 20/82/145 17/5/146 33/224/147 40/83/148
f 46/45/149 45/48/150 19/50/151 18/51/152
f 47/102/153 46/103/154 18/105/155 17/108/156
f 17/85/157 20/88/158 48/90/159 47/91/160
f 20/109/161 19/110/162 45/111/163 48/112/164
f 3/127/165 4/128/166 50/137/167 49/138/168
f 2/94/169 51/96/170 50/97/171 4/99/172
f 52/139/173 51/140/174 2/141/175 1/142/176
f 49/101/177 52/104/178 1/106/179 3/107/180
s 2
f 49/33/181 50/205/182 54/201/183 53/39/184
s 3
f 10/113/185 9/203/186 56/194/187 55/116/188
s 2
f 50/36/182 51/202/189 57/195/190 54/38/183
s 3
f 11/119/191 10/204/185 55/199/188 58/120/192
f 12/121/193 11/200/191 58/197/192 59/122/194
s 2
f 51/117/189 52/196/195 60/191/196 57/118/190
s 3
f 9/114/186 12/198/193 59/193/194 56/115/187
s 2
f 52/123/195 49/206/181 53/192/184 60/124/196
s 4
f 21/129/197 22/173/198 62/167/199 61/147/200
s 5
f 46/131/201 47/171/202 64/149/203 63/164/204
s 4
f 22/130/198 23/170/205 65/155/206 62/70/199
s 5
f 45/134/207 46/172/201 63/165/204 66/160/208
f 48/135/209 45/166/207 66/161/208 67/153/210
s 4
f 23/133/205 24/158/211 68/143/212 65/86/206
s 5
f 47/132/202 48/162/209 67/154/210 64/72/203
s 4
f 24/136/211 21/174/197 61/148/200 68/98/212
